<svg width="100" height="100" viewBox="0 0 100 100" fill="none" xmlns="http://www.w3.org/2000/svg">
<g id="icon">
<g id="Group 1261154297">
<path id="Subtract" fill-rule="evenodd" clip-rule="evenodd" d="M71.2164 47.4021C82.097 47.4021 90.9174 38.5816 90.9174 27.701C90.9174 16.8205 82.097 8 71.2164 8C60.3358 8 51.5154 16.8205 51.5154 27.701C51.5154 38.5816 60.3358 47.4021 71.2164 47.4021ZM71.2163 38.3093C77.075 38.3093 81.8245 33.5598 81.8245 27.701C81.8245 21.8423 77.075 17.0928 71.2163 17.0928C65.3575 17.0928 60.608 21.8423 60.608 27.701C60.608 33.5598 65.3575 38.3093 71.2163 38.3093Z" fill="#FF5A1E"/>
<rect id="Rectangle 9792" x="12.1133" y="23.1543" width="86.8866" height="60.6186" rx="10" fill="white"/>
<rect id="Rectangle 9793" x="64.6494" y="61.5469" width="22.2268" height="11.1134" rx="2" fill="url(#paint0_linear_4288_35119)"/>
<path id="Vector" d="M1.69838 71.9948C2.03759 73.2428 2.5065 74.4404 3.07517 75.6079C3.71369 76.9062 4.52181 78.0837 5.41972 79.2109C6.37749 80.3986 7.50487 81.405 8.64223 82.4215C10.7374 84.2834 12.9422 86.095 15.3167 87.5745C16.3044 88.1884 17.342 88.7017 18.4195 89.1647C19.1478 89.4666 19.906 89.7182 20.6842 89.839C21.203 89.9195 21.7218 90 22.2506 90C24.4954 90 26.6503 89.225 28.6357 88.2287C31.0002 87.031 33.1652 85.3905 35.1406 83.6292C37.2557 81.7472 39.261 79.6739 40.7775 77.2585C41.5158 76.0809 42.1044 74.8229 42.6132 73.5246C43.0622 72.3973 43.3914 71.2399 43.6109 70.0523C43.8803 68.5829 44 67.0934 44 65.6039V51.413C44 50.8696 43.9701 50.316 43.7905 49.8027C43.4613 48.8164 42.8926 48.0616 42.0445 47.4779C41.3661 47.0048 40.568 46.8639 39.7798 46.7834C39.5903 46.7633 39.4007 46.7432 39.2211 46.723C36.7369 46.3607 34.2726 45.787 31.8981 44.9919C31.1898 44.7605 30.4914 44.5089 29.813 44.217C28.8253 43.7842 27.8575 43.281 26.9896 42.6369C26.7202 42.4155 26.4608 42.1638 26.2313 41.8921C26.1216 41.7411 26.0118 41.5902 25.8722 41.4493C25.6128 41.1876 25.3135 40.9662 25.0142 40.7347C24.4056 40.2818 23.6673 40.0403 22.909 40C22.7394 40 22.5698 40 22.3903 40.0201C22.0411 40.0604 21.6819 40.0906 21.3427 40.1912C20.7042 40.3724 20.1355 40.6844 19.6466 41.1272L19.5169 41.2379C18.2599 42.2041 16.923 43.0596 15.5063 43.7842C14.9476 44.0761 14.3789 44.3378 13.8002 44.5994C11.5854 45.5052 9.27077 46.1494 6.90626 46.5016C6.10812 46.5922 5.31995 46.6324 4.53179 46.7633C4.08283 46.8438 3.63387 47.035 3.25476 47.2464C3.0652 47.3571 2.90557 47.4879 2.73596 47.6188C2.5464 47.7597 2.36682 47.9006 2.21717 48.0817C1.48886 48.9171 1.06984 49.9235 1.05986 51.0407V63.4098C1.05986 64.1043 1.09977 64.8088 1.05986 65.4932C1.03991 65.8756 1 66.2379 1 66.6304C1 67.3249 1.02993 68.0193 1.10975 68.7037C1.20951 69.8209 1.3891 70.9279 1.67842 72.0048L1.69838 71.9948Z" fill="#FF5A1E"/>
<path id="Vector_2" d="M12.6007 66.9936L14.7298 69.1617L18.8996 73.408C19.6747 74.1973 20.9796 74.1973 21.7547 73.408L23.0204 72.1191L26.0324 69.0518L29.6921 65.325L32.8415 62.1178C33.3517 61.5983 33.8717 61.0787 34.3819 60.5492L34.4113 60.5192C34.7841 60.1395 35 59.59 35 59.0605C35 58.5309 34.7841 57.9515 34.4113 57.6018C34.0287 57.2421 33.5283 56.9723 32.9789 57.0023C32.4392 57.0322 31.9291 57.2121 31.5464 57.6018L20.4596 68.8919L20.3321 69.0218L15.4558 64.0561C15.083 63.6765 14.5434 63.4567 14.0234 63.4567C13.5034 63.4567 12.9343 63.6765 12.5909 64.0561C12.2377 64.4458 11.9728 64.9554 12.0022 65.5149C12.0415 66.0744 12.2181 66.5839 12.6105 66.9836L12.6007 66.9936Z" fill="#17171A"/>
</g>
</g>
<defs>
<linearGradient id="paint0_linear_4288_35119" x1="87.001" y1="69.0005" x2="65.001" y2="69.0005" gradientUnits="userSpaceOnUse">
<stop stop-color="#17171A"/>
<stop offset="1" stop-color="#17171A" stop-opacity="0"/>
</linearGradient>
</defs>
</svg>
