<svg width="100" height="100" viewBox="0 0 100 100" fill="none" xmlns="http://www.w3.org/2000/svg">
<g id="icon">
<g id="Group 1261154298">
<path id="Vector" d="M88.8816 59.0318C85.3827 58.503 82.4125 61.6532 82.4125 61.6532C82.4125 61.6532 83.29 57.9855 79.2736 57.288C75.4372 56.7592 72.467 59.9094 72.467 59.9094C69.1593 54.6779 63.5678 58.6943 63.5678 58.6943L55.3662 63.577L61.8352 63.7458C61.8352 63.7458 70.5657 64.0946 70.5657 70.3836C70.5657 76.6727 63.0503 77.539 63.0503 77.539H45.2407C39.3004 76.6614 35.4639 71.5987 35.4639 71.5987C35.4639 71.5987 39.6491 72.645 44.0256 73.5225C48.3908 74.4001 55.1974 74.2201 58.8651 74.2201C62.5328 74.2201 67.0667 73.5225 67.0667 70.5524C67.0667 67.5822 63.5678 67.4135 57.9875 67.4135C52.4073 67.4135 48.3796 66.0184 46.6357 65.1521C44.8919 64.4546 39.8291 60.6069 34.5976 57.1192C29.3661 53.6203 22.897 55.9042 22.897 55.9042L7 63.0483L16.7767 83.8168C16.7767 83.8168 18.5206 82.4217 21.8395 80.1491C25.1472 77.8878 28.8261 79.9804 28.8261 79.9804C28.8261 79.9804 33.7088 83.288 43.3168 87.8333C53.0935 92.3785 58.1563 88.362 58.1563 88.362L89.2303 68.4598C89.2303 68.4598 92.898 64.9609 93.4156 63.397C93.7531 61.8332 92.3692 59.5606 88.8703 59.0318H88.8816Z" fill="white"/>
<path id="Vector_2" d="M26.6213 35.7655C27.0038 37.1606 27.5326 38.4994 28.1739 39.8045C28.8939 41.2558 29.8052 42.5721 30.8177 43.8322C31.8978 45.1597 33.1691 46.2848 34.4517 47.4211C36.8143 49.5025 39.3007 51.5276 41.9783 53.1814C43.0921 53.8677 44.2622 54.4415 45.4772 54.959C46.2985 55.2965 47.1536 55.5778 48.0311 55.7128C48.6161 55.8028 49.2012 55.8928 49.7974 55.8928C52.3288 55.8928 54.7589 55.0265 56.9978 53.9127C59.6642 52.5739 62.1055 50.74 64.3332 48.7712C66.7183 46.6673 68.9796 44.3497 70.6897 41.6496C71.5223 40.3333 72.186 38.9269 72.7598 37.4756C73.2661 36.2156 73.6374 34.9217 73.8849 33.5942C74.1886 31.9516 74.3237 30.2865 74.3237 28.6214V12.7581C74.3237 12.1506 74.2899 11.5318 74.0874 10.958C73.7161 9.85549 73.0748 9.0117 72.1185 8.35917C71.3535 7.83039 70.4535 7.67288 69.5647 7.58288C69.3509 7.56038 69.1371 7.53788 68.9346 7.51537C66.1332 7.11035 63.3544 6.46907 60.6767 5.58028C59.8779 5.32152 59.0904 5.04025 58.3254 4.71398C57.2116 4.23021 56.1203 3.66768 55.1415 2.94765C54.8377 2.70013 54.5452 2.41887 54.2864 2.11511C54.1626 1.94635 54.0389 1.77759 53.8814 1.62008C53.5889 1.32757 53.2514 1.08005 52.9138 0.821291C52.2276 0.315016 51.395 0.0450022 50.54 0C50.3487 0 50.1575 0 49.9549 0.0225011C49.5612 0.0675034 49.1562 0.101255 48.7736 0.213761C48.0536 0.416271 47.4123 0.765038 46.861 1.26006L46.7148 1.38382C45.2972 2.46387 43.7896 3.42017 42.1921 4.23021C41.562 4.55648 40.9207 4.84899 40.2682 5.14151C37.7706 6.15406 35.1605 6.87409 32.4941 7.26786C31.594 7.36912 30.7052 7.41412 29.8164 7.56038C29.3102 7.65038 28.8039 7.86414 28.3764 8.1004C28.1626 8.22416 27.9826 8.37042 27.7913 8.51667C27.5776 8.67418 27.3751 8.83169 27.2063 9.0342C26.385 9.968 25.9125 11.0931 25.9012 12.3419V26.1688C25.9012 26.9451 25.9462 27.7326 25.9012 28.4977C25.8787 28.9252 25.8337 29.3302 25.8337 29.769C25.8337 30.5453 25.8675 31.3216 25.9575 32.0866C26.07 33.3354 26.2725 34.573 26.5988 35.7768L26.6213 35.7655Z" fill="#FF5A1E"/>
<path id="Vector_3" d="M38.9965 30.5451L41.4378 32.9865L46.2193 37.768C47.1081 38.6568 48.6044 38.6568 49.4932 37.768L50.9446 36.3167L54.3985 32.8627L58.5949 28.6663L62.2064 25.0548C62.7914 24.4698 63.3877 23.8848 63.9727 23.2885L64.0065 23.2548C64.434 22.8272 64.6815 22.2084 64.6815 21.6122C64.6815 21.0159 64.434 20.3634 64.0065 19.9696C63.5677 19.5646 62.9939 19.2608 62.3639 19.2946C61.7451 19.3283 61.1601 19.5308 60.7213 19.9696L48.0082 32.6827L47.8619 32.829L42.2704 27.2374C41.8429 26.8099 41.2241 26.5624 40.6278 26.5624C40.0315 26.5624 39.379 26.8099 38.9852 27.2374C38.5802 27.6762 38.2764 28.25 38.3102 28.88C38.3552 29.5101 38.5577 30.0838 39.0077 30.5339L38.9965 30.5451Z" fill="#17171A"/>
</g>
</g>
</svg>
