<svg width="145" height="24" viewBox="0 0 145 24" fill="none" xmlns="http://www.w3.org/2000/svg">
  <g clip-path="url(#clip0_1477_10665)">
  <path d="M13.3357 3.71722C16.7084 3.92457 19.4925 6.09378 20.5584 9.29974C22.0221 13.6701 19.588 18.4551 15.1812 19.7789C14.4493 20.0022 13.6539 20.066 12.8743 20.1139C11.9198 20.1777 10.9652 20.1298 10.0107 20.1298C9.46979 20.1298 9.23115 20.2893 9.19934 20.8316C9.16752 21.3739 9.26297 21.9322 9.29479 22.4745C9.3107 22.634 9.3107 22.7935 9.3107 22.969C9.15161 22.969 8.97661 23.0168 8.83343 22.969C4.45843 21.4218 1.49934 18.5029 0.274336 13.9731C-0.950664 9.39544 2.05615 4.62637 6.71752 3.82887C7.95843 3.62152 12.3971 3.66937 13.3357 3.71722ZM12.5721 7.43359C12.1425 7.43359 11.6971 7.41764 11.2675 7.43359C10.7584 7.44954 10.3448 7.67284 10.1221 8.15134C9.89933 8.62984 9.99479 9.09239 10.3289 9.49115C10.5675 9.77825 10.7902 10.0653 11.0448 10.3365C11.713 11.0224 12.238 11.7561 12.0471 12.8088C11.9834 13.1756 12.2539 13.4308 12.5562 13.4468C12.8584 13.4627 13.113 13.1756 13.1289 12.8088C13.1448 12.4579 13.113 12.091 13.1448 11.7401C13.1607 11.5966 13.2084 11.4211 13.3039 11.3095C13.7971 10.6874 14.3221 10.0972 14.8312 9.49115C15.1493 9.10834 15.2607 8.67769 15.0539 8.19919C14.8312 7.70474 14.4334 7.44954 13.8925 7.44954C13.4471 7.43359 13.0016 7.43359 12.5721 7.43359Z" fill="white"/>
  <path d="M4.81726 1.91423C4.80135 2.93503 3.94226 3.78039 2.92408 3.76444C1.9059 3.76444 1.04681 2.88718 1.06272 1.86638C1.06272 0.829626 1.92181 -0.015728 2.97181 0.000222063C3.98999 0.0161721 4.83317 0.877476 4.81726 1.91423Z" fill="white"/>
  <path d="M15.9531 1.88211C15.9531 0.829404 16.7645 0 17.7986 0C18.8486 0 19.6918 0.845354 19.6759 1.89806C19.6759 2.93481 18.8327 3.78017 17.8145 3.78017C16.7963 3.76422 15.9531 2.91886 15.9531 1.88211Z" fill="white"/>
  <path d="M13.8754 7.43359C14.4163 7.44954 14.8141 7.6888 15.0368 8.18325C15.2595 8.66175 15.1322 9.0924 14.8141 9.4752C14.305 10.0813 13.78 10.6874 13.2868 11.2935C13.1913 11.4052 13.1436 11.5806 13.1277 11.7242C13.1118 12.0751 13.1277 12.4419 13.1118 12.7928C13.0959 13.1756 12.8095 13.4308 12.5072 13.4308C12.205 13.4149 11.9663 13.1756 12.03 12.8088C12.2209 11.7561 11.6959 11.0224 11.0277 10.3365C10.7731 10.0654 10.5504 9.77825 10.3118 9.49115C9.97769 9.0924 9.88224 8.6458 10.105 8.15135C10.3277 7.65689 10.7254 7.44954 11.2504 7.43359C11.6959 7.43359 13.4459 7.43359 13.8754 7.43359Z" fill="#FF4907"/>
  </g>
  <path d="M136.711 18.2168V4.55505H140.384V6.93874H140.527C140.776 6.09081 141.194 5.45042 141.781 5.01756C142.368 4.57877 143.044 4.35938 143.809 4.35938C143.998 4.35938 144.203 4.37123 144.422 4.39495C144.642 4.41867 144.834 4.45128 145 4.49279V7.85486C144.823 7.80149 144.577 7.75406 144.262 7.71255C143.948 7.67104 143.66 7.65029 143.399 7.65029C142.842 7.65029 142.344 7.77184 141.905 8.01496C141.472 8.25214 141.128 8.5842 140.873 9.01113C140.624 9.43806 140.5 9.93021 140.5 10.4876V18.2168H136.711Z" fill="white"/>
  <path d="M126.075 18.4726C125.204 18.4726 124.427 18.3214 123.745 18.0189C123.063 17.7106 122.523 17.257 122.126 16.6581C121.735 16.0533 121.539 15.3002 121.539 14.3989C121.539 13.64 121.678 13.0025 121.957 12.4867C122.236 11.9708 122.615 11.5557 123.096 11.2414C123.576 10.9272 124.121 10.69 124.732 10.5299C125.349 10.3698 125.995 10.2571 126.671 10.1919C127.466 10.1089 128.106 10.0318 128.592 9.96066C129.079 9.88357 129.431 9.77091 129.651 9.62267C129.87 9.47443 129.98 9.25504 129.98 8.96449V8.91112C129.98 8.34781 129.802 7.91199 129.446 7.60365C129.096 7.29531 128.598 7.14115 127.952 7.14115C127.27 7.14115 126.727 7.29235 126.324 7.59476C125.921 7.89124 125.654 8.2648 125.524 8.71545L122.019 8.43083C122.197 7.60069 122.547 6.88321 123.069 6.27839C123.591 5.66765 124.264 5.19921 125.088 4.87308C125.918 4.54103 126.879 4.375 127.97 4.375C128.729 4.375 129.455 4.46394 130.149 4.64183C130.848 4.81972 131.468 5.09544 132.008 5.46901C132.553 5.84257 132.983 6.32286 133.297 6.90989C133.612 7.49099 133.769 8.18772 133.769 9.00007V18.2146H130.175V16.3201H130.069C129.849 16.7471 129.556 17.1236 129.188 17.4497C128.821 17.7699 128.379 18.0219 127.863 18.2057C127.347 18.3836 126.751 18.4726 126.075 18.4726ZM127.16 15.8576C127.718 15.8576 128.21 15.7479 128.637 15.5285C129.064 15.3032 129.399 15.0008 129.642 14.6213C129.885 14.2418 130.006 13.8119 130.006 13.3316V11.8818C129.888 11.9589 129.725 12.0301 129.517 12.0953C129.316 12.1546 129.087 12.2109 128.832 12.2643C128.577 12.3117 128.322 12.3562 128.068 12.3977C127.813 12.4333 127.581 12.4659 127.374 12.4956C126.929 12.5608 126.541 12.6645 126.209 12.8069C125.877 12.9492 125.619 13.1419 125.435 13.385C125.251 13.6222 125.159 13.9186 125.159 14.2744C125.159 14.7903 125.346 15.1846 125.719 15.4574C126.099 15.7242 126.579 15.8576 127.16 15.8576Z" fill="white"/>
  <path d="M113.442 18.4815C112.036 18.4815 110.827 18.1968 109.813 17.6276C108.805 17.0524 108.028 16.2401 107.482 15.1905C106.937 14.1351 106.664 12.8869 106.664 11.446C106.664 10.0407 106.937 8.80736 107.482 7.74596C108.028 6.68457 108.796 5.85739 109.786 5.26443C110.782 4.67148 111.95 4.375 113.29 4.375C114.192 4.375 115.031 4.52027 115.807 4.81082C116.59 5.09544 117.272 5.52534 117.853 6.10051C118.44 6.67567 118.897 7.39908 119.223 8.27073C119.549 9.13645 119.712 10.1504 119.712 11.3126V12.3532H108.176V10.0051H116.145C116.145 9.45961 116.027 8.97635 115.79 8.55535C115.552 8.13435 115.223 7.80526 114.802 7.56808C114.387 7.32496 113.904 7.20341 113.353 7.20341C112.777 7.20341 112.268 7.33682 111.823 7.60365C111.384 7.86455 111.04 8.21736 110.791 8.66208C110.542 9.10087 110.415 9.59006 110.409 10.1297V12.3621C110.409 13.0381 110.533 13.6222 110.782 14.1143C111.037 14.6065 111.396 14.986 111.858 15.2528C112.321 15.5196 112.869 15.653 113.504 15.653C113.925 15.653 114.31 15.5938 114.66 15.4752C115.01 15.3566 115.309 15.1787 115.558 14.9415C115.807 14.7043 115.997 14.4138 116.128 14.0699L119.632 14.3011C119.454 15.1431 119.089 15.8784 118.538 16.5069C117.993 17.1295 117.287 17.6157 116.421 17.9656C115.561 18.3095 114.568 18.4815 113.442 18.4815Z" fill="white"/>
  <path d="M90.7266 18.2157V0H98.0199C99.36 0 100.478 0.198641 101.373 0.595922C102.268 0.993204 102.941 1.54465 103.392 2.25027C103.843 2.94996 104.068 3.75639 104.068 4.66954C104.068 5.38109 103.926 6.00666 103.641 6.54625C103.357 7.07991 102.965 7.5187 102.467 7.86262C101.975 8.2006 101.412 8.44075 100.777 8.58306V8.76095C101.471 8.79059 102.12 8.98627 102.725 9.34797C103.336 9.70968 103.831 10.2167 104.21 10.8689C104.59 11.5152 104.78 12.2861 104.78 13.1814C104.78 14.148 104.54 15.0107 104.059 15.7697C103.585 16.5228 102.882 17.1187 101.951 17.5575C101.02 17.9963 99.8729 18.2157 98.5091 18.2157H90.7266ZM94.5778 15.067H97.7175C98.7908 15.067 99.5735 14.8625 100.066 14.4533C100.558 14.0383 100.804 13.4868 100.804 12.799C100.804 12.295 100.682 11.8503 100.439 11.4648C100.196 11.0794 99.8492 10.777 99.3986 10.5576C98.9538 10.3382 98.4232 10.2285 97.8065 10.2285H94.5778V15.067ZM94.5778 7.62247H97.4329C97.9606 7.62247 98.4291 7.53056 98.8382 7.34674C99.2533 7.157 99.5794 6.89017 99.8166 6.54625C100.06 6.20233 100.181 5.79023 100.181 5.30993C100.181 4.65175 99.947 4.12105 99.4786 3.71784C99.0161 3.31463 98.3579 3.11303 97.5041 3.11303H94.5778V7.62247Z" fill="#FF4907"/>
  <path d="M78.315 23.3396C77.8347 23.3396 77.384 23.301 76.963 23.224C76.5479 23.1528 76.204 23.0609 75.9313 22.9482L76.7851 20.1198C77.2298 20.2562 77.6301 20.3303 77.9859 20.3422C78.3476 20.354 78.6589 20.271 78.9198 20.0931C79.1866 19.9153 79.403 19.6128 79.5691 19.1859L79.7914 18.6078L74.8906 4.55469H78.8753L81.7037 14.5875H81.846L84.7011 4.55469H88.7125L83.4025 19.6929C83.1476 20.4282 82.8007 21.0686 82.3619 21.6141C81.929 22.1655 81.3805 22.5895 80.7164 22.886C80.0523 23.1884 79.2518 23.3396 78.315 23.3396Z" fill="white"/>
  <path d="M61.5938 18.2164V15.9573L68.2823 7.67661V7.57877H61.825V4.55469H72.8451V7.01842L66.5657 15.0945V15.1923H73.0764V18.2164H61.5938Z" fill="white"/>
  <path d="M51.0361 18.4726C50.1645 18.4726 49.3877 18.3214 48.7058 18.0189C48.0239 17.7106 47.4843 17.257 47.087 16.6581C46.6957 16.0533 46.5 15.3002 46.5 14.3989C46.5 13.64 46.6393 13.0025 46.918 12.4867C47.1967 11.9708 47.5762 11.5557 48.0565 11.2414C48.5368 10.9272 49.0823 10.69 49.6931 10.5299C50.3098 10.3698 50.9561 10.2571 51.632 10.1919C52.4266 10.1089 53.067 10.0318 53.5532 9.96066C54.0395 9.88357 54.3923 9.77091 54.6117 9.62267C54.8311 9.47443 54.9408 9.25504 54.9408 8.96449V8.91112C54.9408 8.34781 54.7629 7.91199 54.4071 7.60365C54.0572 7.29531 53.5592 7.14115 52.9128 7.14115C52.2309 7.14115 51.6884 7.29235 51.2852 7.59476C50.882 7.89124 50.6151 8.2648 50.4847 8.71545L46.9803 8.43083C47.1582 7.60069 47.508 6.88321 48.0298 6.27839C48.5516 5.66765 49.2246 5.19921 50.0489 4.87308C50.879 4.54103 51.8396 4.375 52.9306 4.375C53.6896 4.375 54.416 4.46394 55.1097 4.64183C55.8094 4.81972 56.4291 5.09544 56.9687 5.46901C57.5142 5.84257 57.9441 6.32286 58.2583 6.90989C58.5726 7.49099 58.7297 8.18772 58.7297 9.00007V18.2146H55.1364V16.3201H55.0297C54.8103 16.7471 54.5168 17.1236 54.1492 17.4497C53.7815 17.7699 53.3398 18.0219 52.8239 18.2057C52.308 18.3836 51.7121 18.4726 51.0361 18.4726ZM52.1212 15.8576C52.6786 15.8576 53.1708 15.7479 53.5977 15.5285C54.0246 15.3032 54.3597 15.0008 54.6028 14.6213C54.8459 14.2418 54.9674 13.8119 54.9674 13.3316V11.8818C54.8488 11.9589 54.6858 12.0301 54.4782 12.0953C54.2766 12.1546 54.0484 12.2109 53.7934 12.2643C53.5384 12.3117 53.2834 12.3562 53.0285 12.3977C52.7735 12.4333 52.5422 12.4659 52.3347 12.4956C51.89 12.5608 51.5016 12.6645 51.1695 12.8069C50.8375 12.9492 50.5795 13.1419 50.3957 13.385C50.2119 13.6222 50.12 13.9186 50.12 14.2744C50.12 14.7903 50.3068 15.1846 50.6804 15.4574C51.0598 15.7242 51.5401 15.8576 52.1212 15.8576Z" fill="white"/>
  <path d="M33 18.2157V0H36.8513V15.0404H44.6605V18.2157H33Z" fill="#FF4907"/>
  <defs>
  <clipPath id="clip0_1477_10665">
  <rect width="21" height="23" fill="white"/>
  </clipPath>
  </defs>
  </svg>
  