<svg width="100" height="100" viewBox="0 0 100 100" fill="none" xmlns="http://www.w3.org/2000/svg">
<g id="icon">
<g id="Group 1261154295">
<rect id="Rectangle 9788" x="4" y="41.9492" width="50" height="41.5225" rx="12" fill="#FF5A1E"/>
<g id="Group 1261154293">
<path id="Vector" d="M42.3853 41.541H43.5248C61.6226 41.541 76.3163 56.244 76.3163 74.3533V77.6951C76.3163 84.4862 70.8063 89.9997 64.0194 89.9997H21.8906C15.1037 89.9997 9.59375 84.4862 9.59375 77.6951V74.3533C9.59375 56.244 24.2874 41.541 42.3853 41.541Z" fill="white"/>
<path id="Vector_2" d="M25.1304 22.4595C25.1304 31.5085 32.4705 38.9179 41.5794 38.9179C50.6883 38.9179 58.0274 31.5741 58.0274 22.4595C58.0274 13.3448 50.6872 6 41.5794 6C32.4716 6 25.1304 13.3438 25.1304 22.4595Z" fill="white"/>
<path id="Vector_3" d="M50.4809 47.1807L43.7966 55.2463L36.523 47.1807H50.4809ZM43.4031 84.8195L35.8672 75.3111L43.7966 59.0485L50.8088 75.3111L43.4031 84.8195Z" fill="url(#paint0_linear_4288_35088)"/>
<g id="Group 1261154299">
<path id="Vector_4" d="M80.8222 59.0938C81.0466 58.9254 81.3271 58.757 81.5515 58.5895C83.3449 57.1309 84.2977 55.0557 84.2977 52.6438C84.2977 48.8863 82.336 45.6323 78.7484 43.501C77.2907 42.6599 75.5534 41.9863 73.704 41.5381C73.704 39.2945 71.9097 37.5 69.6684 37.5H67.258C65.0158 37.5 63.2224 39.2945 63.2224 41.5381V41.9872C60.8681 42.8283 58.7381 44.2308 56.9999 46.0814C54.4212 48.8863 52.9083 52.5315 52.8522 56.3459C52.7961 60.5524 54.2538 63.6942 56.552 66.1053C55.7114 66.4982 54.9261 67.0587 54.3099 67.7323C52.74 69.3031 51.8994 71.4906 51.8994 73.7903C51.8994 77.66 53.9733 81.0262 57.7292 83.269C59.3552 84.2223 61.2607 85.0073 63.2785 85.4564C63.2785 87.9807 65.3524 89.9997 67.8189 89.9997H69.1644C71.6871 89.9997 73.7048 87.9807 73.7048 85.4564V85.4003C76.4519 84.7275 78.9175 83.4374 80.9362 81.5858C84.075 78.7248 85.7571 74.7989 85.7571 70.424C85.701 64.9835 83.571 61.4497 80.824 59.0938H80.8222Z" fill="#FF5A1E"/>
<path id="Vector_5" d="M69.9047 82.2037V86.2979H66.9902V82.2037C62.562 82.0914 55.8916 79.6233 55.6681 74.1827C55.5559 71.6585 57.3493 69.3588 59.8719 69.0781C62.6189 68.7413 64.7489 70.9287 64.7489 73.5091C64.7489 76.4824 62.1141 76.9306 62.1141 77.492C62.1141 78.4454 66.2057 79.5672 66.9911 79.2303V70.8165L69.9055 71.9383V79.2303C72.0355 79.2865 74.5581 77.4358 74.5581 74.8554C74.5581 72.4996 73.0444 71.0419 66.9911 68.5176C59.8167 65.1522 56.5648 61.9553 56.6217 56.4024C56.7339 50.2883 61.3865 45.6897 66.9911 44.9039V41.2578H69.9055V44.7916C74.2216 44.96 80.5001 47.1474 80.5001 52.588C80.5001 55.392 78.1458 56.7945 75.5118 56.6261C73.4379 56.5138 71.812 54.8316 71.812 52.7564C71.812 50.569 73.2688 49.7269 73.2688 49.0542C73.2688 48.0447 70.4665 47.5956 69.8494 47.7079V54.9991L66.935 53.7651V47.7632C65.2529 48.1561 63.74 49.7822 63.9635 51.746C64.3001 54.6062 67.439 56.3454 69.7372 57.355L73.8289 59.2617C78.9864 61.6176 81.9008 64.5339 81.9008 70.4797C81.9569 77.4911 76.3515 81.866 69.9047 82.2028V82.2037Z" fill="white"/>
</g>
</g>
</g>
</g>
<defs>
<linearGradient id="paint0_linear_4288_35088" x1="43.338" y1="47.1807" x2="43.338" y2="84.8195" gradientUnits="userSpaceOnUse">
<stop offset="0.335" stop-color="#17171A"/>
<stop offset="1" stop-color="#26262A" stop-opacity="0"/>
</linearGradient>
</defs>
</svg>
