<svg width="321" height="249" viewBox="0 0 321 249" fill="none" xmlns="http://www.w3.org/2000/svg">
  <circle cx="5.1652" cy="19.3561" r="5.13395" fill="#DE8A66"/>
  <circle cx="35.4166" cy="56.3292" r="2.56697" fill="#DE8A66"/>
  <circle cx="12.2799" cy="188.776" r="2.56697" fill="#DE8A66"/>
  <circle cx="314.9" cy="66.4167" r="5.13395" fill="#DE8A66"/>
  <circle cx="231.894" cy="152.838" r="2.56697" fill="#DE8A66"/>
  <ellipse cx="307.625" cy="209.739" rx="2.13915" ry="2.13915" fill="#DE8A66"/>
  <g clip-path="url(#clip0_4288_34415)">
    <path d="M78.1025 153.285C78.1025 168.446 122.749 208.317 191.803 206.346C280.237 203.819 244.863 122.965 196.857 101.91C170.773 90.4722 152.016 84.745 126.109 97.6985C109.265 106.121 78.1025 129.695 78.1025 153.285Z" fill="black"/>
    <path d="M78.1025 149.074C78.1025 164.234 117.696 203.263 186.75 201.292C275.184 198.765 239.81 117.912 191.803 96.8559C165.719 85.4185 146.963 79.6913 121.056 92.6448C104.212 101.067 78.1025 125.483 78.1025 149.074Z" fill="white" stroke="#26262A" stroke-miterlimit="10"/>
    <mask id="mask0_4288_34415" style="mask-type:alpha" maskUnits="userSpaceOnUse" x="77" y="84" width="165" height="118">
      <path d="M78.1016 149.074C78.1016 164.235 117.695 203.263 186.749 201.293C275.183 198.766 239.809 117.912 191.802 96.8564C165.718 85.4189 146.962 79.6918 121.055 92.6453C104.211 101.068 78.1016 125.484 78.1016 149.074Z" fill="white" stroke="#26262A" stroke-miterlimit="10"/>
    </mask>
    <g mask="url(#mask0_4288_34415)">
      <path d="M80.6289 134.756C95.789 115.385 123.161 108.74 158.956 114.543C186.463 118.998 216.227 129.703 231.859 147.179" stroke="#FF5A1E" stroke-opacity="0.5" stroke-miterlimit="10"/>
    </g>
    <path d="M66.6709 45.3311L67.5597 67.5524C70.0785 66.2167 74.2292 63.1328 77.7815 61.3303C88.0189 56.1358 99.7794 51.456 104.003 50.6641C111.113 49.3308 164.889 43.5533 194.665 46.6643C224.442 49.7753 240.441 59.997 256.885 70.2188C270.04 78.3962 277.18 92.2919 279.106 98.2176L280.884 101.329C281.624 97.625 283.106 87.9069 283.106 78.6629C283.106 67.1078 273.329 64.4413 269.773 55.9972C266.218 47.5531 235.108 31.9984 214.664 25.7764C194.221 19.5545 134.224 25.332 110.669 25.7764C91.8254 26.132 73.4854 38.961 66.6709 45.3311Z" fill="#D9D9D9"/>
    <path d="M223.553 176.881V150.66C255.107 143.105 269.773 117.772 278.217 111.106C286.661 104.44 285.328 82.2184 285.772 83.5517C286.141 84.6568 287.033 79.401 287.55 93.7736C287.657 96.7397 287.023 106.922 287.106 111.106C287.55 133.772 273.735 149.045 261.329 158.215C251.107 165.771 232.293 174.066 223.553 176.881Z" fill="#D9D9D9"/>
    <path d="M67.1572 46.76V67.8157C89.4847 52.6135 122.887 42.9531 160.223 42.9531C220.064 42.9531 269.822 67.7651 280.013 100.452" stroke="#26262A" stroke-miterlimit="10" stroke-linejoin="round"/>
    <path d="M223.81 176.539C261.575 164.217 286.977 141.258 286.977 114.964C286.977 110.618 288.307 91.7182 286.977 87.5913" stroke="#26262A" stroke-miterlimit="10" stroke-linejoin="round"/>
    <path d="M218.755 172.656L223.808 176.809V151.946L218.755 147.566V172.656Z" fill="white" stroke="#26262A" stroke-miterlimit="10" stroke-linejoin="round"/>
    <path d="M160.221 16.8444C120.662 16.8444 85.347 27.2037 62.1016 43.425L66.3801 46.2465C66.3801 46.2465 66.5697 46.7319 66.6708 46.6645C88.9898 31.9171 122.616 21.8977 160.229 21.8977C227.448 21.8977 281.931 51.8726 281.931 88.8548C281.931 114.164 256.412 136.188 218.764 147.566L223.809 151.929C261.583 139.388 286.985 116.033 286.985 89.2674C286.985 49.2617 230.235 16.8359 160.229 16.8359L160.221 16.8444Z" fill="#F0F0F0" stroke="#26262A" stroke-miterlimit="10" stroke-linejoin="round"/>
    <path d="M62.1016 64.043L67.1549 67.8162V46.7605L62.1016 43.4253V64.043Z" fill="white" stroke="#26262A" stroke-miterlimit="10" stroke-linejoin="round"/>
    <path d="M109.335 211.546L114.224 206.213V235.101L109.335 239.545V211.546Z" fill="#F0F0F0"/>
    <path d="M109.265 211.399V239.858C109.265 239.858 35.1493 222.348 35.9915 164.234C35.9915 110.332 44.4138 112.016 62.9428 98.5405V130.545C62.9428 130.545 44.4138 147.39 46.9404 159.181C48.0101 164.192 64.6272 193.712 114.319 205.503L109.265 211.399Z" fill="#F0F0F0" stroke="#26262A" stroke-miterlimit="10" stroke-linejoin="round"/>
    <path d="M109.265 211.399C109.265 211.399 39.3349 189.931 36.3955 146.337" stroke="#26262A" stroke-miterlimit="10" stroke-linejoin="round"/>
    <path d="M62.9429 103.063C62.9429 103.063 24.2005 129.703 52.8362 169.288" stroke="#26262A" stroke-miterlimit="10" stroke-linejoin="round"/>
    <path d="M109.266 240.034L114.319 234.981V205.503" stroke="#26262A" stroke-miterlimit="10" stroke-linejoin="round"/>
    <path d="M158.535 108.226C188.305 108.226 212.438 84.093 212.438 54.3234C212.438 24.5539 188.305 0.420898 158.535 0.420898C128.766 0.420898 104.633 24.5539 104.633 54.3234C104.633 84.093 128.766 108.226 158.535 108.226Z" fill="white" stroke="#26262A" stroke-miterlimit="10"/>
    <path d="M133.689 61.4824V84.391" stroke="#26262A" stroke-width="2" stroke-miterlimit="10"/>
    <path d="M244.866 244.901C256.495 244.901 265.922 235.474 265.922 223.846C265.922 212.217 256.495 202.79 244.866 202.79C233.237 202.79 223.811 212.217 223.811 223.846C223.811 235.474 233.237 244.901 244.866 244.901Z" fill="#7BC0FF" stroke="#26262A" stroke-miterlimit="10"/>
    <path d="M244.866 248.457C256.495 248.457 265.922 239.03 265.922 227.401C265.922 215.773 256.495 206.346 244.866 206.346C233.237 206.346 223.811 215.773 223.811 227.401C223.811 239.03 233.237 248.457 244.866 248.457Z" fill="#57AEFE" stroke="#26262A" stroke-miterlimit="10"/>
    <path d="M163.049 135.977C165.786 136.617 167.757 138.807 168.178 141.629C168.759 145.478 166.089 149.125 162.291 149.621C161.659 149.706 161.002 149.647 160.354 149.579C159.562 149.504 158.787 149.327 158.004 149.192C157.558 149.116 157.339 149.217 157.238 149.664C157.137 150.11 157.137 150.59 157.086 151.045C157.078 151.18 157.052 151.314 157.027 151.457C156.901 151.432 156.749 151.457 156.64 151.39C153.271 149.495 151.258 146.648 150.896 142.707C150.533 138.723 153.675 135.16 157.608 135.144C158.653 135.144 162.283 135.8 163.049 135.969V135.977ZM161.904 138.967C161.55 138.908 161.188 138.832 160.834 138.79C160.413 138.731 160.042 138.866 159.798 139.228C159.545 139.599 159.562 139.995 159.781 140.374C159.933 140.643 160.076 140.913 160.253 141.174C160.708 141.839 161.028 142.521 160.724 143.372C160.623 143.667 160.809 143.92 161.053 143.979C161.297 144.037 161.55 143.827 161.609 143.524C161.668 143.237 161.693 142.926 161.769 142.631C161.802 142.513 161.87 142.37 161.963 142.294C162.451 141.848 162.965 141.427 163.47 140.989C163.782 140.711 163.933 140.374 163.832 139.944C163.723 139.498 163.428 139.237 162.99 139.161C162.628 139.085 162.266 139.026 161.912 138.967H161.904Z" fill="#252525"/>
    <path d="M156.328 133.291C156.168 134.142 155.351 134.723 154.517 134.571C153.683 134.428 153.102 133.577 153.262 132.735C153.405 131.868 154.23 131.286 155.09 131.446C155.923 131.598 156.488 132.432 156.336 133.299L156.328 133.291Z" fill="#252525"/>
    <path d="M165.458 134.807C165.61 133.931 166.384 133.35 167.235 133.493C168.086 133.637 168.667 134.462 168.507 135.338C168.364 136.205 167.547 136.786 166.713 136.652C165.879 136.5 165.306 135.675 165.458 134.816V134.807Z" fill="#252525"/>
    <path d="M162.965 139.144C163.403 139.229 163.698 139.49 163.807 139.928C163.925 140.357 163.757 140.703 163.445 140.972C162.94 141.41 162.426 141.84 161.937 142.278C161.845 142.353 161.777 142.497 161.744 142.614C161.685 142.901 161.643 143.212 161.584 143.507C161.516 143.827 161.247 143.996 160.994 143.954C160.75 143.895 160.59 143.667 160.691 143.372C160.994 142.522 160.666 141.84 160.219 141.174C160.051 140.913 159.908 140.644 159.748 140.374C159.529 139.995 159.512 139.608 159.764 139.229C160.017 138.85 160.371 138.732 160.8 138.791L162.948 139.153L162.965 139.144Z" fill="#FF4907"/>
    <path d="M60.4153 112.672C70.1834 112.672 78.102 104.753 78.102 94.9851C78.102 85.217 70.1834 77.2983 60.4153 77.2983C50.6471 77.2983 42.7285 85.217 42.7285 94.9851C42.7285 104.753 50.6471 112.672 60.4153 112.672Z" fill="#FC9C75" stroke="#26262A" stroke-miterlimit="10"/>
    <path d="M60.4153 116.227C70.1834 116.227 78.102 108.308 78.102 98.5403C78.102 88.7722 70.1834 80.8535 60.4153 80.8535C50.6471 80.8535 42.7285 88.7722 42.7285 98.5403C42.7285 108.308 50.6471 116.227 60.4153 116.227Z" fill="#FF6D2C" stroke="#26262A" stroke-miterlimit="10"/>
    <path d="M52.4306 95.8032H55.2773C55.6816 95.8032 55.8838 96.0054 55.8838 96.4096V105.809C55.8838 106.213 55.6816 106.415 55.2773 106.415H52.4306C52.0264 106.415 51.8242 106.213 51.8242 105.809V96.4096C51.8242 96.0054 52.0264 95.8032 52.4306 95.8032Z" fill="#F0F0F0"/>
    <path d="M62.1664 89.4023C61.6863 90.1687 61.6863 91.4405 61.2989 92.3332C60.5746 94.1356 58.9744 95.4495 57.0625 95.8032V106.432H67.3461C68.0114 106.432 68.601 105.986 68.7947 105.346L70.8329 98.7763C71.0435 98.0857 70.9171 97.3277 70.4876 96.7465C70.0581 96.1654 69.3759 95.8201 68.6431 95.8201H63.5729C63.5729 95.8201 66.0238 92.5438 65.2068 90.0845C65.0384 89.377 64.4488 88.8464 63.7245 88.7454C63.1181 88.6106 62.4864 88.8801 62.158 89.4023H62.1664Z" fill="#F0F0F0"/>
    <path d="M61.8052 100.318C62.2936 100.318 62.6896 99.9216 62.6896 99.4332C62.6896 98.9448 62.2936 98.5488 61.8052 98.5488C61.3168 98.5488 60.9209 98.9448 60.9209 99.4332C60.9209 99.9216 61.3168 100.318 61.8052 100.318Z" fill="#FF5103"/>
    <path d="M65.233 100.318C65.7214 100.318 66.1173 99.9216 66.1173 99.4332C66.1173 98.9448 65.7214 98.5488 65.233 98.5488C64.7446 98.5488 64.3486 98.9448 64.3486 99.4332C64.3486 99.9216 64.7446 100.318 65.233 100.318Z" fill="#FF5103"/>
    <path d="M63.5145 103.745C62.2006 103.745 61.0383 102.861 60.693 101.597C60.6425 101.421 60.752 101.235 60.9288 101.193C61.1057 101.143 61.291 101.252 61.3331 101.429C61.6026 102.406 62.5038 103.097 63.5229 103.097C64.542 103.097 65.4516 102.406 65.7127 101.421C65.7632 101.244 65.9401 101.143 66.117 101.185C66.2938 101.235 66.3949 101.412 66.3528 101.589C66.0075 102.869 64.8452 103.762 63.5229 103.762L63.5145 103.745Z" fill="#FF5103"/>
    <path d="M252.948 216.141L253.74 214.515C253.765 214.456 253.824 214.414 253.892 214.414C253.959 214.414 254.018 214.456 254.043 214.515L254.843 216.141C254.869 216.191 254.911 216.225 254.97 216.233L256.755 216.486C256.823 216.486 256.873 216.536 256.89 216.595C256.907 216.654 256.89 216.722 256.848 216.764L255.559 218.027C255.559 218.027 255.5 218.12 255.509 218.17L255.82 219.947C255.829 220.006 255.804 220.074 255.753 220.108C255.703 220.141 255.635 220.15 255.576 220.116L253.976 219.282C253.925 219.257 253.875 219.257 253.824 219.282L252.233 220.099C252.174 220.133 252.106 220.124 252.056 220.091C252.005 220.057 251.98 219.99 251.988 219.931L252.283 218.154C252.292 218.103 252.275 218.044 252.233 218.01L250.936 216.781C250.885 216.739 250.868 216.663 250.893 216.604C250.919 216.545 250.978 216.503 251.045 216.503L252.822 216.233C252.873 216.225 252.915 216.183 252.932 216.141H252.948Z" fill="white"/>
    <path d="M234.689 224.36H237.89C238.344 224.36 238.572 224.588 238.572 225.043V235.604C238.572 236.059 238.344 236.286 237.89 236.286H234.689C234.234 236.286 234.007 236.059 234.007 235.604V225.043C234.007 224.588 234.234 224.36 234.689 224.36Z" fill="white"/>
    <path d="M245.629 217.16C245.09 218.027 245.09 219.451 244.661 220.453C243.844 222.483 242.05 223.957 239.902 224.361V236.304H251.458C252.207 236.295 252.864 235.807 253.083 235.091L255.374 227.704C255.61 226.921 255.467 226.079 254.987 225.422C254.498 224.765 253.732 224.378 252.915 224.378H247.221C247.221 224.378 249.975 220.689 249.057 217.935C248.864 217.135 248.207 216.537 247.398 216.427C246.716 216.275 246.008 216.57 245.629 217.168V217.16Z" fill="white"/>
  </g>
  <defs>
    <clipPath id="clip0_4288_34415">
      <rect width="252.424" height="248.878" fill="white" transform="translate(35.5615)"/>
    </clipPath>
  </defs>
</svg>
